<?xml version="1.0" encoding="utf-8"?>
<svg viewBox="84.1802 68.6447 336.8589 370.0453" xmlns="http://www.w3.org/2000/svg">
  <path d="M 247.964 69.531 C 238.117 72.527 231.809 79.95 230.41 90.191 L 229.739 95.097 L 212.764 105.097 C 203.427 110.597 179.405 124.816 159.381 136.695 L 122.975 158.294 L 117.941 155.802 C 103.359 148.586 86.575 157.605 84.348 173.854 C 83.163 182.503 88.382 192.726 95.957 196.59 L 99.97 198.638 L 99.97 259.957 L 99.97 321.276 L 97.693 322.313 C 82.774 329.111 79.717 350.617 92.176 361.123 C 93.988 362.65 96.918 364.507 98.688 365.249 C 103.384 367.216 112.687 366.908 117.733 364.618 L 121.996 362.683 L 187.903 400.687 L 253.81 438.69 L 319.028 400.693 L 384.245 362.697 L 388.068 364.647 C 393.049 367.188 402.051 367.211 407.47 364.697 C 422.27 357.83 425.618 338.216 413.931 326.847 C 412.094 325.059 410.226 323.597 409.78 323.597 C 409.335 323.597 408.97 295.246 408.97 260.594 L 408.97 197.592 L 413.126 193.844 C 421.253 186.517 423.305 175.676 418.421 165.875 C 412.819 154.632 398.976 150.027 387.491 155.587 L 383.042 157.74 L 330.256 125.79 L 277.47 93.839 L 276.827 89.389 C 274.774 75.169 260.872 65.605 247.964 69.531 M 266.462 111.797 C 264.816 112.811 261.571 114.131 259.25 114.73 C 255.152 115.788 254.942 116.046 252.018 123.63 C 248.064 133.882 242.013 155.443 237.895 173.951 C 234.352 189.878 234.12 190.018 231.867 177.597 C 228.673 159.993 230.545 132.303 235.974 116.847 C 236.989 113.959 237.603 111.597 237.338 111.597 C 237.074 111.597 219.671 121.795 198.664 134.258 C 177.657 146.722 155.871 159.636 150.25 162.955 C 144.628 166.274 140.156 169.116 140.31 169.271 C 140.465 169.425 146.719 170.683 154.208 172.067 C 184.602 177.68 222.7 191.167 250.97 206.32 C 269.999 216.52 297.407 233.632 306.249 240.834 L 309.028 243.097 L 301.915 248.68 L 294.802 254.263 L 279.596 244.18 C 235.821 215.154 190.065 196.276 145.095 188.686 C 129.644 186.078 128.272 186.072 127.467 188.606 C 127.116 189.711 124.836 192.281 122.4 194.318 L 117.97 198.021 L 117.97 259.933 L 117.97 321.845 L 122.567 325.891 C 126.976 329.772 127.415 329.928 133.317 329.708 C 154.334 328.925 184.892 321.723 200.319 313.916 C 202.987 312.567 205.375 311.669 205.628 311.922 C 206.486 312.78 192.497 326.167 186.47 330.255 C 174.642 338.279 159.081 344.841 145.47 347.543 C 134.947 349.633 135.04 349.429 142.587 353.827 C 160.709 364.388 234.043 406.597 234.271 406.597 C 234.413 406.597 232.838 401.434 230.771 395.124 C 216.383 351.199 210.004 299.396 212.914 250.097 C 213.564 239.097 214.404 227.781 214.782 224.949 L 215.47 219.802 L 223.97 223.666 C 231.198 226.953 232.447 227.873 232.315 229.814 C 229.528 270.815 229.575 286.232 232.581 316.597 C 235.83 349.414 244.753 385.96 255.387 410.006 L 257.86 415.598 L 268.665 409.301 C 274.608 405.837 300.958 390.483 327.22 375.181 L 374.97 347.36 L 374.97 341.169 C 374.97 335.846 374.47 334.15 371.401 329.052 C 365.743 319.656 354.271 306.226 339.049 291.179 C 331.306 283.524 324.97 277.14 324.97 276.992 C 324.97 276.845 328.149 277.605 332.035 278.682 C 347.551 282.982 363.502 293.166 380.22 309.446 L 390.97 319.914 L 390.97 262.345 L 390.97 204.777 L 378.72 217.29 C 342.515 254.273 301.399 284.27 254.49 307.925 C 247.351 311.525 241.418 314.378 241.305 314.266 C 241.193 314.153 240.995 309.794 240.866 304.579 L 240.631 295.097 L 247.051 291.741 C 295.58 266.373 339.812 233.454 370.855 199.603 L 379.026 190.693 L 376.998 186.91 C 375.792 184.661 374.97 181.237 374.97 178.468 L 374.97 173.809 L 357.22 163.057 C 347.458 157.143 323.716 142.775 304.462 131.129 L 269.454 109.953 L 266.462 111.797" stroke="none" fill="#040404" fill-rule="evenodd" transform="matrix(1, 0, 0, 1, -5.684341886080802e-14, 0)"/>
</svg>