<?xml version="1.0" encoding="utf-8"?>
<svg viewBox="133.5012 41.0097 336.859 370.0453" xmlns="http://www.w3.org/2000/svg">
  <path d="M 297.285 41.896 C 287.438 44.892 281.13 52.315 279.731 62.556 L 279.06 67.462 L 262.085 77.462 C 252.748 82.962 228.726 97.181 208.702 109.06 L 172.296 130.659 L 167.262 128.167 C 152.68 120.951 135.896 129.97 133.669 146.219 C 132.484 154.868 137.703 165.091 145.278 168.955 L 149.291 171.003 L 149.291 232.322 L 149.291 293.641 L 147.014 294.678 C 132.095 301.476 129.038 322.982 141.497 333.488 C 143.309 335.015 146.239 336.872 148.009 337.614 C 152.705 339.581 162.008 339.273 167.054 336.983 L 171.317 335.048 L 237.224 373.052 L 303.131 411.055 L 368.349 373.058 L 433.566 335.062 L 437.389 337.012 C 442.37 339.553 451.372 339.576 456.791 337.062 C 471.591 330.195 474.939 310.581 463.252 299.212 C 461.415 297.424 459.547 295.962 459.101 295.962 C 458.656 295.962 458.291 267.611 458.291 232.959 L 458.291 169.957 L 462.447 166.209 C 470.574 158.882 472.626 148.041 467.742 138.24 C 462.14 126.997 448.297 122.392 436.812 127.952 L 432.363 130.105 L 379.577 98.155 L 326.791 66.204 L 326.148 61.754 C 324.095 47.534 310.193 37.97 297.285 41.896 M 315.783 84.162 C 314.137 85.176 310.892 86.496 308.571 87.095 C 304.473 88.153 304.263 88.411 301.339 95.995 C 297.385 106.247 291.334 127.808 287.216 146.316 C 283.673 162.243 283.441 162.383 281.188 149.962 C 277.994 132.358 279.866 104.668 285.295 89.212 C 286.31 86.324 286.924 83.962 286.659 83.962 C 286.395 83.962 268.992 94.16 247.985 106.623 C 226.978 119.087 205.192 132.001 199.571 135.32 C 193.949 138.639 189.477 141.481 189.631 141.636 C 189.786 141.79 196.04 143.048 203.529 144.432 C 233.923 150.045 272.021 163.532 300.291 178.685 C 319.32 188.885 346.728 205.997 355.57 213.199 L 358.349 215.462 L 351.236 221.045 L 344.123 226.628 L 328.917 216.545 C 285.142 187.519 239.386 168.641 194.416 161.051 C 178.965 158.443 177.593 158.437 176.788 160.971 C 176.437 162.076 174.157 164.646 171.721 166.683 L 167.291 170.386 L 167.291 232.298 L 167.291 294.21 L 171.888 298.256 C 176.297 302.137 176.736 302.293 182.638 302.073 C 203.655 301.29 234.213 294.088 249.64 286.281 C 252.308 284.932 254.696 284.034 254.949 284.287 C 255.807 285.145 241.818 298.532 235.791 302.62 C 223.963 310.644 208.402 317.206 194.791 319.908 C 184.268 321.998 184.361 321.794 191.908 326.192 C 210.03 336.753 283.364 378.962 283.592 378.962 C 283.734 378.962 282.159 373.799 280.092 367.489 C 265.704 323.564 259.325 271.761 262.235 222.462 C 262.885 211.462 263.725 200.146 264.103 197.314 L 264.791 192.167 L 273.291 196.031 C 280.519 199.318 281.768 200.238 281.636 202.179 C 278.849 243.18 278.896 258.597 281.902 288.962 C 285.151 321.779 294.074 358.325 304.708 382.371 L 307.181 387.963 L 317.986 381.666 C 323.929 378.202 350.279 362.848 376.541 347.546 L 424.291 319.725 L 424.291 313.534 C 424.291 308.211 423.791 306.515 420.722 301.417 C 415.064 292.021 403.592 278.591 388.37 263.544 C 380.627 255.889 374.291 249.505 374.291 249.357 C 374.291 249.21 377.47 249.97 381.356 251.047 C 396.872 255.347 412.823 265.531 429.541 281.811 L 440.291 292.279 L 440.291 234.71 L 440.291 177.142 L 428.041 189.655 C 391.836 226.638 350.72 256.635 303.811 280.29 C 296.672 283.89 290.739 286.743 290.626 286.631 C 290.514 286.518 290.316 282.159 290.187 276.944 L 289.952 267.462 L 296.372 264.106 C 344.901 238.738 389.133 205.819 420.176 171.968 L 428.347 163.058 L 426.319 159.275 C 425.113 157.026 424.291 153.602 424.291 150.833 L 424.291 146.174 L 406.541 135.422 C 396.779 129.508 373.037 115.14 353.783 103.494 L 318.775 82.318 L 315.783 84.162" stroke="none" fill="#f9f9f9" fill-rule="evenodd" transform="matrix(1, 0, 0, 1, -5.684341886080802e-14, 0)"/>
</svg>